name Walk9.mot
datacolumns 19
datarows 10
range 1.85100000 1.86000000
endheader

                time	   L_ground_force_vx	   L_ground_force_vy	   L_ground_force_vz	   L_ground_force_px	   L_ground_force_py	   L_ground_force_pz	   R_ground_force_vx	   R_ground_force_vy	   R_ground_force_vz	   R_ground_force_px	   R_ground_force_py	   R_ground_force_pz	   L_ground_torque_x	   L_ground_torque_y	   L_ground_torque_z	   R_ground_torque_x	   R_ground_torque_y	   R_ground_torque_z	
          1.85100000	          0.00135501	          0.00508012	         -0.00109141	         -0.00012139	          0.00000000	         -0.00004470	        -33.99885867	        528.52274094	        -39.08848070	          0.26680621	          0.00000000	          0.09884596	          0.00000000	          0.00007685	          0.00000000	          0.00000000	          0.86900447	          0.00000000	
          1.85200000	          0.00066765	          0.00295901	         -0.00106739	         -0.00011294	          0.00000000	         -0.00004172	        -33.41839847	        527.20508118	        -39.02706936	          0.26707207	          0.00000000	          0.09896922	          0.00000000	          0.00007160	          0.00000000	          0.00000000	          0.85575275	          0.00000000	
          1.85300000	          0.00003621	          0.00100707	         -0.00104138	         -0.00010478	          0.00000000	         -0.00003884	        -32.84112918	        525.91033141	        -38.96850974	          0.26733489	          0.00000000	          0.09909115	          0.00000000	          0.00006652	          0.00000000	          0.00000000	          0.84244783	          0.00000000	
          1.85400000	         -0.00054168	         -0.00078272	         -0.00101365	         -0.00009692	          0.00000000	         -0.00003605	        -32.26713274	        524.63836597	        -38.91263286	          0.26759471	          0.00000000	          0.09921178	          0.00000000	          0.00006163	          0.00000000	          0.00000000	          0.82910580	          0.00000000	
          1.85500000	         -0.00106839	         -0.00241737	         -0.00098444	         -0.00008936	          0.00000000	         -0.00003337	        -31.69648518	        523.38905175	        -38.85927249	          0.26785159	          0.00000000	          0.09933113	          0.00000000	          0.00005692	          0.00000000	          0.00000000	          0.81574183	          0.00000000	
          1.85600000	         -0.00154628	         -0.00390391	         -0.00095400	         -0.00008210	          0.00000000	         -0.00003078	        -31.12925660	        522.16224767	        -38.80826554	          0.26810558	          0.00000000	          0.09944921	          0.00000000	          0.00005239	          0.00000000	          0.00000000	          0.80237010	          0.00000000	
          1.85700000	         -0.00197769	         -0.00524930	         -0.00092254	         -0.00007516	          0.00000000	         -0.00002831	        -30.56551115	        520.95780458	        -38.75945229	          0.26835675	          0.00000000	          0.09956605	          0.00000000	          0.00004805	          0.00000000	          0.00000000	          0.78900390	          0.00000000	
          1.85800000	         -0.00236495	         -0.00646046	         -0.00089027	         -0.00006852	          0.00000000	         -0.00002593	        -30.00530723	        519.77556527	        -38.71267682	          0.26860515	          0.00000000	          0.09968165	          0.00000000	          0.00004390	          0.00000000	          0.00000000	          0.77565561	          0.00000000	
          1.85900000	         -0.00271034	         -0.00754424	         -0.00085738	         -0.00006218	          0.00000000	         -0.00002366	        -29.44869756	        518.61536464	        -38.66778755	          0.26885083	          0.00000000	          0.09979603	          0.00000000	          0.00003993	          0.00000000	          0.00000000	          0.76233675	          0.00000000	
          1.86000000	         -0.00301613	         -0.00850736	         -0.00082405	         -0.00005615	          0.00000000	         -0.00002149	        -28.89572943	        517.47702988	        -38.62463785	          0.26909386	          0.00000000	          0.09990919	          0.00000000	          0.00003616	          0.00000000	          0.00000000	          0.74905782	          0.00000000	
